<mxfile host="app.diagrams.net" modified="2022-08-08T14:36:58.102Z" agent="5.0 (Windows NT 10.0; Win64; x64) AppleWebKit/537.36 (KHTML, like Gecko) Chrome/104.0.5112.81 Safari/537.36 Edg/104.0.1293.47" etag="I8hi8MIMlU-eO39aJ8Rk" version="20.2.3" type="github">
  <diagram id="6a731a19-8d31-9384-78a2-239565b7b9f0" name="Page-1">
    <mxGraphModel dx="2500" dy="1498" grid="1" gridSize="10" guides="1" tooltips="1" connect="1" arrows="1" fold="1" page="1" pageScale="1" pageWidth="1169" pageHeight="827" background="none" math="0" shadow="0">
      <root>
        <mxCell id="0" />
        <mxCell id="1" parent="0" />
        <mxCell id="1515" value="Order" style="ellipse;whiteSpace=wrap;html=1;shadow=0;fontFamily=Helvetica;fontSize=30;fontColor=#2F5B7C;align=center;strokeColor=#2F5B7C;strokeWidth=6;fillColor=#FFFFFF;fontStyle=1;gradientColor=none;" parent="1" vertex="1">
          <mxGeometry x="940" y="510" width="270" height="270" as="geometry" />
        </mxCell>
        <mxCell id="cJdGqvNKMXNpSknQlnvH-1545" style="edgeStyle=orthogonalEdgeStyle;rounded=0;orthogonalLoop=1;jettySize=auto;html=1;exitX=0.5;exitY=1;exitDx=0;exitDy=0;entryX=0;entryY=0.5;entryDx=0;entryDy=0;fontSize=27;" edge="1" parent="1" source="cJdGqvNKMXNpSknQlnvH-1542" target="1515">
          <mxGeometry relative="1" as="geometry" />
        </mxCell>
        <mxCell id="cJdGqvNKMXNpSknQlnvH-1542" value="&lt;font style=&quot;font-size: 27px;&quot;&gt;Customer&lt;/font&gt;" style="ellipse;whiteSpace=wrap;html=1;" vertex="1" parent="1">
          <mxGeometry x="740" y="250" width="200" height="170" as="geometry" />
        </mxCell>
        <mxCell id="cJdGqvNKMXNpSknQlnvH-1546" style="edgeStyle=orthogonalEdgeStyle;rounded=0;orthogonalLoop=1;jettySize=auto;html=1;entryX=1;entryY=0.5;entryDx=0;entryDy=0;fontSize=27;" edge="1" parent="1" source="cJdGqvNKMXNpSknQlnvH-1543" target="1515">
          <mxGeometry relative="1" as="geometry" />
        </mxCell>
        <mxCell id="cJdGqvNKMXNpSknQlnvH-1543" value="Product&lt;br&gt;" style="ellipse;whiteSpace=wrap;html=1;fontSize=27;" vertex="1" parent="1">
          <mxGeometry x="1200" y="240" width="300" height="180" as="geometry" />
        </mxCell>
        <mxCell id="cJdGqvNKMXNpSknQlnvH-1548" style="edgeStyle=orthogonalEdgeStyle;rounded=0;orthogonalLoop=1;jettySize=auto;html=1;entryX=0.5;entryY=1;entryDx=0;entryDy=0;fontSize=27;" edge="1" parent="1" source="cJdGqvNKMXNpSknQlnvH-1547" target="1515">
          <mxGeometry relative="1" as="geometry">
            <Array as="points">
              <mxPoint x="1075" y="890" />
            </Array>
          </mxGeometry>
        </mxCell>
        <mxCell id="cJdGqvNKMXNpSknQlnvH-1547" value="Date range&lt;br&gt;" style="rounded=1;whiteSpace=wrap;html=1;fontSize=27;" vertex="1" parent="1">
          <mxGeometry x="380" y="850" width="230" height="60" as="geometry" />
        </mxCell>
      </root>
    </mxGraphModel>
  </diagram>
</mxfile>
